<?xml version="1.0" standalone="no"?>
<!DOCTYPE svg PUBLIC "-//W3C//DTD SVG 20010904//EN"
 "http://www.w3.org/TR/2001/REC-SVG-20010904/DTD/svg10.dtd">
<svg version="1.0" xmlns="http://www.w3.org/2000/svg"
 width="1024.000000pt" height="1024.000000pt" viewBox="0 0 1024.000000 1024.000000"
 preserveAspectRatio="xMidYMid meet">
<metadata>
Created by potrace 1.11, written by Peter Selinger 2001-2013
</metadata>
<g transform="translate(0.000000,1024.000000) scale(0.100000,-0.100000)"
fill="#000000" stroke="none">
<path d="M7847 9894 c-1 -1 -74 -5 -162 -8 -172 -7 -280 -13 -360 -20 -151
-15 -237 -20 -300 -19 -144 3 -605 2 -735 -2 -261 -6 -573 -16 -654 -20 -44
-2 -146 -7 -226 -10 -80 -3 -174 -8 -210 -10 -102 -7 -248 -15 -335 -20 -44
-2 -107 -7 -140 -9 -67 -6 -159 -13 -280 -21 -44 -3 -100 -8 -125 -10 -25 -2
-79 -6 -120 -10 -41 -3 -91 -8 -110 -10 -19 -3 -60 -7 -90 -10 -56 -5 -126
-12 -190 -20 -155 -18 -160 -19 -245 -31 -33 -4 -67 -8 -75 -9 -8 -1 -34 -5
-58 -9 -23 -4 -52 -9 -65 -11 -224 -30 -614 -123 -817 -195 -63 -22 -122 -42
-130 -45 -39 -10 -138 -56 -275 -125 -183 -93 -282 -127 -425 -145 -19 -2 -57
-7 -85 -10 -27 -3 -72 -10 -100 -15 -27 -5 -65 -12 -83 -15 -151 -25 -357
-139 -487 -270 -142 -141 -232 -318 -270 -525 -6 -32 -13 -1140 -15 -2350 -1
-526 3 -582 50 -707 91 -244 281 -429 527 -514 32 -11 74 -22 93 -25 38 -6 67
-15 200 -64 612 -222 1231 -549 1665 -879 95 -73 293 -260 366 -347 18 -23 43
-52 54 -65 215 -260 407 -641 483 -959 75 -310 90 -493 97 -1145 3 -380 7
-444 31 -540 32 -123 65 -157 229 -238 342 -168 767 -144 1135 63 122 69 229
149 329 245 230 221 370 477 409 745 10 71 6 336 -7 435 -18 143 -59 358 -87
470 -9 33 -17 67 -19 76 -6 29 -66 252 -116 429 -102 357 -160 589 -184 730
-9 52 -18 109 -21 125 -9 51 -12 272 -4 285 6 10 27 6 91 -18 79 -28 274 -85
329 -96 135 -26 305 -55 349 -60 30 -4 64 -8 75 -11 12 -2 49 -7 83 -10 34 -3
86 -8 115 -10 112 -11 158 -14 318 -21 280 -13 820 -7 980 11 19 2 73 4 121 6
280 6 533 178 664 451 65 134 85 222 91 393 8 250 -74 470 -239 641 -40 41
-70 75 -67 75 3 1 21 3 40 4 131 9 273 58 348 120 132 107 192 180 256 309 73
145 90 223 90 401 -1 122 -5 165 -22 229 -65 237 -216 456 -382 556 -30 19
-56 35 -58 36 -2 1 25 31 60 66 74 76 120 149 155 250 34 96 37 120 37 273 0
118 -14 215 -41 285 -3 8 -7 20 -8 26 -7 30 -87 189 -125 245 -58 87 -200 225
-282 274 -37 22 -68 43 -68 47 0 4 13 28 30 54 148 234 165 586 39 836 -77
153 -200 290 -319 354 -19 10 -42 24 -50 31 -20 16 -184 70 -240 79 -37 6
-428 13 -433 8z"/>
</g>
</svg>
